<svg preserveAspectRatio="none" overflow="visible" style="display: block;" width="27.5" height="34.5" viewBox="0 0 27.5 34.5" fill="none" xmlns="http://www.w3.org/2000/svg">
<path id="Vector" d="M8.39286 4.80556H4.82143C3.87423 4.80556 2.96582 5.18016 2.29605 5.84695C1.62627 6.51375 1.25 7.41812 1.25 8.36111V29.6944C1.25 30.6374 1.62627 31.5418 2.29605 32.2086C2.96582 32.8754 3.87423 33.25 4.82143 33.25H22.6786C23.6258 33.25 24.5342 32.8754 25.204 32.2086C25.8737 31.5418 26.25 30.6374 26.25 29.6944V8.36111C26.25 7.41812 25.8737 6.51375 25.204 5.84695C24.5342 5.18016 23.6258 4.80556 22.6786 4.80556H19.1071M8.39286 4.80556C8.39286 3.86256 8.76913 2.95819 9.4389 2.2914C10.1087 1.6246 11.0171 1.25 11.9643 1.25H15.5357C16.4829 1.25 17.3913 1.6246 18.0611 2.2914C18.7309 2.95819 19.1071 3.86256 19.1071 4.80556M8.39286 4.80556C8.39286 5.74855 8.76913 6.65292 9.4389 7.31971C10.1087 7.98651 11.0171 8.36111 11.9643 8.36111H15.5357C16.4829 8.36111 17.3913 7.98651 18.0611 7.31971C18.7309 6.65292 19.1071 5.74855 19.1071 4.80556M8.39286 17.25H8.41071M15.5357 17.25H19.1071M8.39286 24.3611H8.41071M15.5357 24.3611H19.1071" stroke="#3D0000" stroke-opacity="0.3" stroke-width="2.5" stroke-linecap="round" stroke-linejoin="round"/>
</svg>
